# xmcd CD database file
#
# Track frame offsets:
#	182
#	15912
#	32675
#	49857
#	64830
#	88617
#	97850
#	115040
#	131735
#	155300
#	165207
#	179925
#	199770
#	210005
#	223582
#	237580
#	253055
#	270922
#	281752
#
# Disc length: 3953 seconds
#
# Revision: 0
# Processed by: cddbd v1.5.1PL0 Copyright (c) Steve Scherf et al.
# Submitted via: CDex 1.51
#
DISCID=000f6f13
DTITLE=John Littleton - John Littleton, chante ses plus grands succès (1961 - 1988 )
DYEAR=1900
DGENRE=Christian music
TTITLE0=Donne-moi la main, mon frère
TTITLE1=REconciliez-vous
TTITLE2=Notre chemin
TTITLE3=Au ciel des étoiles
TTITLE4=Minuit chrétien
TTITLE5=Christ est venu
TTITLE6=Gethsemani
TTITLE7=Tu étais là
TTITLE8=Il faut marcher de très longues routes
TTITLE9=Gloire à toi
TTITLE10=Mon royaume n'est pas de ce monde
TTITLE11=Va plus loin
TTITLE12=Mon chemin c'est toi
TTITLE13=Dans un champ de blé
TTITLE14=Ô Seigneur, je viens vers toi
TTITLE15=Lorsqu'au printemps
TTITLE16=Allez sur les places
TTITLE17=Toi, notre dame
TTITLE18=Je cherche
EXTD=
EXTT0=
EXTT1=
EXTT2=
EXTT3=
EXTT4=
EXTT5=
EXTT6=
EXTT7=
EXTT8=
EXTT9=
EXTT10=
EXTT11=
EXTT12=
EXTT13=
EXTT14=
EXTT15=
EXTT16=
EXTT17=
EXTT18=
PLAYORDER=
